<?xml version="1.0" ?><svg id="Layer_1" style="enable-background:new 0 0 64 64;" version="1.1" viewBox="0 0 64 64" xml:space="preserve" xmlns="http://www.w3.org/2000/svg" xmlns:xlink="http://www.w3.org/1999/xlink"><style type="text/css">
	.st0{fill:url(#SVGID_1_);}
	.st1{fill:url(#SVGID_2_);}
	.st2{fill:url(#SVGID_3_);}
	.st3{fill:url(#SVGID_4_);}
	.st4{fill:#FFFFFF;}
	.st5{fill:url(#SVGID_5_);}
	.st6{fill:url(#SVGID_6_);}
	.st7{fill:url(#SVGID_7_);}
	.st8{fill:url(#SVGID_8_);}
	.st9{fill:url(#SVGID_9_);}
	.st10{fill:#FFBF0B;}
	.st11{fill:#1A1A54;}
	.st12{fill:#DC2863;}
	.st13{fill:none;stroke:#1A1A54;stroke-width:3;stroke-linecap:round;stroke-linejoin:round;stroke-miterlimit:10;}
	.st14{fill:#0B85FF;}
	.st15{opacity:0.5;fill:#FFFFFF;}
	.st16{fill:#00AF64;}
	.st17{fill:#00D17C;}
	.st18{fill:none;stroke:#00D17C;stroke-width:3;stroke-linecap:round;stroke-linejoin:round;stroke-miterlimit:10;}
</style><circle class="st12" cx="32" cy="32" r="32"/><circle class="st4" cx="44.5" cy="31.5" r="7.5"/><circle class="st11" cx="44.5" cy="31.5" r="3.5"/><circle class="st4" cx="19.5" cy="31.5" r="7.5"/><circle class="st11" cx="19.5" cy="31.5" r="3.5"/><path class="st13" d="M40.7,49c-1.7-3-5-5-8.7-5s-6.9,2-8.7,5"/><polygon class="st12" points="4.2,20 32,34.6 59.8,20 "/><g><path class="st11" d="M36.5,30.4l15.7-9.5c1.3-0.8,3-0.4,3.8,0.9c0.8,1.3,0.4,3-0.9,3.8c-0.1,0.1-0.3,0.1-0.4,0.2l-17.1,6.8   c-0.6,0.2-1.3-0.1-1.5-0.7C35.8,31.3,36,30.7,36.5,30.4z"/></g><g><path class="st11" d="M26.5,32.6L9.4,25.8c-1.4-0.6-2.1-2.1-1.5-3.6c0.6-1.4,2.1-2.1,3.6-1.5c0.1,0.1,0.3,0.1,0.4,0.2l15.7,9.5   c0.6,0.3,0.7,1.1,0.4,1.6C27.6,32.6,27,32.8,26.5,32.6z"/></g></svg>