<?xml version="1.0" ?><svg id="Layer_1" style="enable-background:new 0 0 64 64;" version="1.1" viewBox="0 0 64 64" xml:space="preserve" xmlns="http://www.w3.org/2000/svg" xmlns:xlink="http://www.w3.org/1999/xlink"><style type="text/css">
	.st0{fill:url(#SVGID_1_);}
	.st1{fill:url(#SVGID_2_);}
	.st2{fill:url(#SVGID_3_);}
	.st3{fill:url(#SVGID_4_);}
	.st4{fill:#FFFFFF;}
	.st5{fill:url(#SVGID_5_);}
	.st6{fill:url(#SVGID_6_);}
	.st7{fill:url(#SVGID_7_);}
	.st8{fill:url(#SVGID_8_);}
	.st9{fill:url(#SVGID_9_);}
	.st10{fill:#FFBF0B;}
	.st11{fill:#1A1A54;}
	.st12{fill:#DC2863;}
	.st13{fill:none;stroke:#1A1A54;stroke-width:3;stroke-linecap:round;stroke-linejoin:round;stroke-miterlimit:10;}
	.st14{fill:#0B85FF;}
	.st15{opacity:0.5;fill:#FFFFFF;}
	.st16{fill:#00AF64;}
	.st17{fill:#00D17C;}
	.st18{fill:none;stroke:#00D17C;stroke-width:3;stroke-linecap:round;stroke-linejoin:round;stroke-miterlimit:10;}
</style><circle class="st10" cx="32" cy="32" r="32"/><circle class="st4" cx="44.5" cy="21.5" r="7.5"/><path class="st11" d="M52,32c0,11-9,20-20,20s-20-9-20-20H52z"/><path class="st12" d="M32,41c-6,0-11.3,2-14.4,5C21.3,49.7,26.4,52,32,52s10.7-2.3,14.4-6.1C43.3,42.9,38,41,32,41z"/><path class="st4" d="M42.4,37H21.6c-1,0-1.8-0.7-2-1.6L19,32h26l-0.7,3.4C44.1,36.3,43.3,37,42.4,37z"/><circle class="st11" cx="44.5" cy="21.5" r="4.5"/><circle class="st4" cx="19.5" cy="21.5" r="7.5"/><circle class="st11" cx="19.5" cy="21.5" r="4.5"/><ellipse class="st10" cx="44.5" cy="28" rx="16.4" ry="4"/><ellipse class="st10" cx="19.5" cy="28" rx="16.4" ry="4"/></svg>